<svg width="47" height="48" viewBox="0 0 47 48" fill="none" xmlns="http://www.w3.org/2000/svg">
<path d="M42.3333 42.6667C42.3333 45.2567 40.2566 47.3333 37.6666 47.3333C35.0766 47.3333 33 45.2333 33 42.6667C33 40.0767 35.0766 38 37.6666 38C40.2566 38 42.3333 40.1 42.3333 42.6667ZM14.3333 38C11.7433 38 9.66665 40.0767 9.66665 42.6667C9.66665 45.2333 11.7433 47.3333 14.3333 47.3333C16.9233 47.3333 19 45.2567 19 42.6667C19 40.0767 16.9233 38 14.3333 38ZM14.8 30.1367L14.73 30.4167C14.73 30.7433 14.9866 31 15.3133 31H42.3333V35.6667H14.3333C11.7433 35.6667 9.66665 33.5667 9.66665 31C9.66665 30.1833 9.87665 29.4133 10.2266 28.76L13.4 23.0433L4.99998 5.33334H0.333313V0.666672H7.96331L10.1566 5.33334H44.6666C45.95 5.33334 47 6.38334 47 7.66667C47 8.06334 46.8833 8.46001 46.72 8.83334L38.3666 23.93C37.5733 25.3533 36.0333 26.3333 34.2833 26.3333H16.9L14.8 30.1367ZM17.8333 21.6667H21.3333V17H15.64L17.8333 21.6667ZM23.6666 17V21.6667H30.6666V17H23.6666ZM30.6666 14.6667V10H23.6666V14.6667H30.6666ZM37.9233 17H33V21.6667H35.3333L37.9233 17ZM41.82 10H33V14.6667H39.23L41.82 10ZM12.3266 10L14.52 14.6667H21.3333V10H12.3266Z" fill="#1E1E1E"/>
</svg>
